<svg xmlns="http://www.w3.org/2000/svg" viewBox="0 0 1920 1080" preserveAspectRatio="xMidYMid slice">
  <defs>
    <!-- Night sky gradient -->
    <linearGradient id="nightSky" x1="0%" y1="0%" x2="0%" y2="100%">
      <stop offset="0%" style="stop-color:#0a0e27;stop-opacity:1" />
      <stop offset="50%" style="stop-color:#1a1b3d;stop-opacity:1" />
      <stop offset="100%" style="stop-color:#0d0d1f;stop-opacity:1" />
    </linearGradient>
    
    <!-- Glow effect for brighter stars -->
    <filter id="glow">
      <feGaussianBlur stdDeviation="2" result="coloredBlur"/>
      <feMerge>
        <feMergeNode in="coloredBlur"/>
        <feMergeNode in="SourceGraphic"/>
      </feMerge>
    </filter>
  </defs>
  
  <!-- Background -->
  <rect width="1920" height="1080" fill="url(#nightSky)"/>
  
  <!-- Large stars with glow -->
  <circle cx="150" cy="120" r="2.5" fill="#ffffff" opacity="0.9" filter="url(#glow)"/>
  <circle cx="450" cy="80" r="2" fill="#ffffff" opacity="0.85" filter="url(#glow)"/>
  <circle cx="820" cy="150" r="2.5" fill="#ffffff" opacity="0.9" filter="url(#glow)"/>
  <circle cx="1200" cy="100" r="2" fill="#ffffff" opacity="0.85" filter="url(#glow)"/>
  <circle cx="1550" cy="180" r="2.5" fill="#ffffff" opacity="0.9" filter="url(#glow)"/>
  <circle cx="1800" cy="90" r="2" fill="#ffffff" opacity="0.85" filter="url(#glow)"/>
  
  <circle cx="300" cy="400" r="2" fill="#ffffff" opacity="0.85" filter="url(#glow)"/>
  <circle cx="680" cy="450" r="2.5" fill="#ffffff" opacity="0.9" filter="url(#glow)"/>
  <circle cx="1100" cy="380" r="2" fill="#ffffff" opacity="0.85" filter="url(#glow)"/>
  <circle cx="1450" cy="420" r="2.5" fill="#ffffff" opacity="0.9" filter="url(#glow)"/>
  
  <circle cx="200" cy="720" r="2" fill="#ffffff" opacity="0.85" filter="url(#glow)"/>
  <circle cx="550" cy="800" r="2.5" fill="#ffffff" opacity="0.9" filter="url(#glow)"/>
  <circle cx="920" cy="750" r="2" fill="#ffffff" opacity="0.85" filter="url(#glow)"/>
  <circle cx="1300" cy="820" r="2.5" fill="#ffffff" opacity="0.9" filter="url(#glow)"/>
  <circle cx="1650" cy="780" r="2" fill="#ffffff" opacity="0.85" filter="url(#glow)"/>
  
  <!-- Medium stars -->
  <circle cx="80" cy="200" r="1.5" fill="#ffffff" opacity="0.75"/>
  <circle cx="220" cy="160" r="1.5" fill="#ffffff" opacity="0.7"/>
  <circle cx="380" cy="220" r="1.5" fill="#ffffff" opacity="0.8"/>
  <circle cx="520" cy="180" r="1.5" fill="#ffffff" opacity="0.75"/>
  <circle cx="650" cy="240" r="1.5" fill="#ffffff" opacity="0.7"/>
  <circle cx="780" cy="200" r="1.5" fill="#ffffff" opacity="0.8"/>
  <circle cx="920" cy="260" r="1.5" fill="#ffffff" opacity="0.75"/>
  <circle cx="1050" cy="220" r="1.5" fill="#ffffff" opacity="0.7"/>
  <circle cx="1180" cy="280" r="1.5" fill="#ffffff" opacity="0.8"/>
  <circle cx="1320" cy="240" r="1.5" fill="#ffffff" opacity="0.75"/>
  <circle cx="1450" cy="300" r="1.5" fill="#ffffff" opacity="0.7"/>
  <circle cx="1580" cy="260" r="1.5" fill="#ffffff" opacity="0.8"/>
  <circle cx="1720" cy="320" r="1.5" fill="#ffffff" opacity="0.75"/>
  <circle cx="1850" cy="280" r="1.5" fill="#ffffff" opacity="0.7"/>
  
  <circle cx="120" cy="480" r="1.5" fill="#ffffff" opacity="0.75"/>
  <circle cx="260" cy="520" r="1.5" fill="#ffffff" opacity="0.7"/>
  <circle cx="400" cy="560" r="1.5" fill="#ffffff" opacity="0.8"/>
  <circle cx="540" cy="500" r="1.5" fill="#ffffff" opacity="0.75"/>
  <circle cx="720" cy="580" r="1.5" fill="#ffffff" opacity="0.7"/>
  <circle cx="860" cy="540" r="1.5" fill="#ffffff" opacity="0.8"/>
  <circle cx="1000" cy="600" r="1.5" fill="#ffffff" opacity="0.75"/>
  <circle cx="1140" cy="560" r="1.5" fill="#ffffff" opacity="0.7"/>
  <circle cx="1280" cy="620" r="1.5" fill="#ffffff" opacity="0.8"/>
  <circle cx="1420" cy="580" r="1.5" fill="#ffffff" opacity="0.75"/>
  <circle cx="1560" cy="640" r="1.5" fill="#ffffff" opacity="0.7"/>
  <circle cx="1700" cy="600" r="1.5" fill="#ffffff" opacity="0.8"/>
  <circle cx="1840" cy="660" r="1.5" fill="#ffffff" opacity="0.75"/>
  
  <circle cx="160" cy="880" r="1.5" fill="#ffffff" opacity="0.75"/>
  <circle cx="300" cy="920" r="1.5" fill="#ffffff" opacity="0.7"/>
  <circle cx="440" cy="960" r="1.5" fill="#ffffff" opacity="0.8"/>
  <circle cx="580" cy="900" r="1.5" fill="#ffffff" opacity="0.75"/>
  <circle cx="760" cy="980" r="1.5" fill="#ffffff" opacity="0.7"/>
  <circle cx="900" cy="940" r="1.5" fill="#ffffff" opacity="0.8"/>
  <circle cx="1040" cy="1000" r="1.5" fill="#ffffff" opacity="0.75"/>
  <circle cx="1180" cy="960" r="1.5" fill="#ffffff" opacity="0.7"/>
  <circle cx="1320" cy="1020" r="1.5" fill="#ffffff" opacity="0.8"/>
  <circle cx="1460" cy="980" r="1.5" fill="#ffffff" opacity="0.75"/>
  <circle cx="1600" cy="1040" r="1.5" fill="#ffffff" opacity="0.7"/>
  <circle cx="1740" cy="1000" r="1.5" fill="#ffffff" opacity="0.8"/>
  
  <!-- Small stars (lots of them!) -->
  <circle cx="50" cy="50" r="1" fill="#ffffff" opacity="0.5"/>
  <circle cx="110" cy="90" r="1" fill="#ffffff" opacity="0.6"/>
  <circle cx="170" cy="70" r="1" fill="#ffffff" opacity="0.5"/>
  <circle cx="230" cy="110" r="1" fill="#ffffff" opacity="0.6"/>
  <circle cx="290" cy="90" r="1" fill="#ffffff" opacity="0.5"/>
  <circle cx="350" cy="130" r="1" fill="#ffffff" opacity="0.6"/>
  <circle cx="410" cy="110" r="1" fill="#ffffff" opacity="0.5"/>
  <circle cx="470" cy="150" r="1" fill="#ffffff" opacity="0.6"/>
  <circle cx="530" cy="130" r="1" fill="#ffffff" opacity="0.5"/>
  <circle cx="590" cy="170" r="1" fill="#ffffff" opacity="0.6"/>
  <circle cx="650" cy="150" r="1" fill="#ffffff" opacity="0.5"/>
  <circle cx="710" cy="110" r="1" fill="#ffffff" opacity="0.6"/>
  <circle cx="770" cy="130" r="1" fill="#ffffff" opacity="0.5"/>
  <circle cx="830" cy="90" r="1" fill="#ffffff" opacity="0.6"/>
  <circle cx="890" cy="110" r="1" fill="#ffffff" opacity="0.5"/>
  <circle cx="950" cy="150" r="1" fill="#ffffff" opacity="0.6"/>
  <circle cx="1010" cy="130" r="1" fill="#ffffff" opacity="0.5"/>
  <circle cx="1070" cy="170" r="1" fill="#ffffff" opacity="0.6"/>
  <circle cx="1130" cy="150" r="1" fill="#ffffff" opacity="0.5"/>
  <circle cx="1190" cy="190" r="1" fill="#ffffff" opacity="0.6"/>
  <circle cx="1250" cy="170" r="1" fill="#ffffff" opacity="0.5"/>
  <circle cx="1310" cy="130" r="1" fill="#ffffff" opacity="0.6"/>
  <circle cx="1370" cy="150" r="1" fill="#ffffff" opacity="0.5"/>
  <circle cx="1430" cy="110" r="1" fill="#ffffff" opacity="0.6"/>
  <circle cx="1490" cy="130" r="1" fill="#ffffff" opacity="0.5"/>
  <circle cx="1550" cy="90" r="1" fill="#ffffff" opacity="0.6"/>
  <circle cx="1610" cy="110" r="1" fill="#ffffff" opacity="0.5"/>
  <circle cx="1670" cy="150" r="1" fill="#ffffff" opacity="0.6"/>
  <circle cx="1730" cy="130" r="1" fill="#ffffff" opacity="0.5"/>
  <circle cx="1790" cy="170" r="1" fill="#ffffff" opacity="0.6"/>
  <circle cx="1850" cy="150" r="1" fill="#ffffff" opacity="0.5"/>
  
  <circle cx="90" cy="340" r="1" fill="#ffffff" opacity="0.5"/>
  <circle cx="150" cy="380" r="1" fill="#ffffff" opacity="0.6"/>
  <circle cx="210" cy="360" r="1" fill="#ffffff" opacity="0.5"/>
  <circle cx="270" cy="400" r="1" fill="#ffffff" opacity="0.6"/>
  <circle cx="330" cy="380" r="1" fill="#ffffff" opacity="0.5"/>
  <circle cx="390" cy="420" r="1" fill="#ffffff" opacity="0.6"/>
  <circle cx="450" cy="400" r="1" fill="#ffffff" opacity="0.5"/>
  <circle cx="510" cy="440" r="1" fill="#ffffff" opacity="0.6"/>
  <circle cx="570" cy="420" r="1" fill="#ffffff" opacity="0.5"/>
  <circle cx="630" cy="380" r="1" fill="#ffffff" opacity="0.6"/>
  <circle cx="690" cy="400" r="1" fill="#ffffff" opacity="0.5"/>
  <circle cx="750" cy="440" r="1" fill="#ffffff" opacity="0.6"/>
  <circle cx="810" cy="420" r="1" fill="#ffffff" opacity="0.5"/>
  <circle cx="870" cy="380" r="1" fill="#ffffff" opacity="0.6"/>
  <circle cx="930" cy="400" r="1" fill="#ffffff" opacity="0.5"/>
  <circle cx="990" cy="440" r="1" fill="#ffffff" opacity="0.6"/>
  <circle cx="1050" cy="420" r="1" fill="#ffffff" opacity="0.5"/>
  <circle cx="1110" cy="460" r="1" fill="#ffffff" opacity="0.6"/>
  <circle cx="1170" cy="440" r="1" fill="#ffffff" opacity="0.5"/>
  <circle cx="1230" cy="480" r="1" fill="#ffffff" opacity="0.6"/>
  <circle cx="1290" cy="460" r="1" fill="#ffffff" opacity="0.5"/>
  <circle cx="1350" cy="420" r="1" fill="#ffffff" opacity="0.6"/>
  <circle cx="1410" cy="440" r="1" fill="#ffffff" opacity="0.5"/>
  <circle cx="1470" cy="480" r="1" fill="#ffffff" opacity="0.6"/>
  <circle cx="1530" cy="460" r="1" fill="#ffffff" opacity="0.5"/>
  <circle cx="1590" cy="420" r="1" fill="#ffffff" opacity="0.6"/>
  <circle cx="1650" cy="440" r="1" fill="#ffffff" opacity="0.5"/>
  <circle cx="1710" cy="480" r="1" fill="#ffffff" opacity="0.6"/>
  <circle cx="1770" cy="460" r="1" fill="#ffffff" opacity="0.5"/>
  <circle cx="1830" cy="500" r="1" fill="#ffffff" opacity="0.6"/>
  <circle cx="1890" cy="480" r="1" fill="#ffffff" opacity="0.5"/>
  
  <circle cx="70" cy="640" r="1" fill="#ffffff" opacity="0.5"/>
  <circle cx="130" cy="680" r="1" fill="#ffffff" opacity="0.6"/>
  <circle cx="190" cy="660" r="1" fill="#ffffff" opacity="0.5"/>
  <circle cx="250" cy="700" r="1" fill="#ffffff" opacity="0.6"/>
  <circle cx="310" cy="680" r="1" fill="#ffffff" opacity="0.5"/>
  <circle cx="370" cy="720" r="1" fill="#ffffff" opacity="0.6"/>
  <circle cx="430" cy="700" r="1" fill="#ffffff" opacity="0.5"/>
  <circle cx="490" cy="740" r="1" fill="#ffffff" opacity="0.6"/>
  <circle cx="550" cy="720" r="1" fill="#ffffff" opacity="0.5"/>
  <circle cx="610" cy="680" r="1" fill="#ffffff" opacity="0.6"/>
  <circle cx="670" cy="700" r="1" fill="#ffffff" opacity="0.5"/>
  <circle cx="730" cy="740" r="1" fill="#ffffff" opacity="0.6"/>
  <circle cx="790" cy="720" r="1" fill="#ffffff" opacity="0.5"/>
  <circle cx="850" cy="680" r="1" fill="#ffffff" opacity="0.6"/>
  <circle cx="910" cy="700" r="1" fill="#ffffff" opacity="0.5"/>
  <circle cx="970" cy="740" r="1" fill="#ffffff" opacity="0.6"/>
  <circle cx="1030" cy="720" r="1" fill="#ffffff" opacity="0.5"/>
  <circle cx="1090" cy="760" r="1" fill="#ffffff" opacity="0.6"/>
  <circle cx="1150" cy="740" r="1" fill="#ffffff" opacity="0.5"/>
  <circle cx="1210" cy="700" r="1" fill="#ffffff" opacity="0.6"/>
  <circle cx="1270" cy="720" r="1" fill="#ffffff" opacity="0.5"/>
  <circle cx="1330" cy="760" r="1" fill="#ffffff" opacity="0.6"/>
  <circle cx="1390" cy="740" r="1" fill="#ffffff" opacity="0.5"/>
  <circle cx="1450" cy="700" r="1" fill="#ffffff" opacity="0.6"/>
  <circle cx="1510" cy="720" r="1" fill="#ffffff" opacity="0.5"/>
  <circle cx="1570" cy="760" r="1" fill="#ffffff" opacity="0.6"/>
  <circle cx="1630" cy="740" r="1" fill="#ffffff" opacity="0.5"/>
  <circle cx="1690" cy="700" r="1" fill="#ffffff" opacity="0.6"/>
  <circle cx="1750" cy="720" r="1" fill="#ffffff" opacity="0.5"/>
  <circle cx="1810" cy="760" r="1" fill="#ffffff" opacity="0.6"/>
  <circle cx="1870" cy="740" r="1" fill="#ffffff" opacity="0.5"/>
  
  <circle cx="100" cy="940" r="1" fill="#ffffff" opacity="0.5"/>
  <circle cx="160" cy="980" r="1" fill="#ffffff" opacity="0.6"/>
  <circle cx="220" cy="960" r="1" fill="#ffffff" opacity="0.5"/>
  <circle cx="280" cy="1000" r="1" fill="#ffffff" opacity="0.6"/>
  <circle cx="340" cy="980" r="1" fill="#ffffff" opacity="0.5"/>
  <circle cx="400" cy="1020" r="1" fill="#ffffff" opacity="0.6"/>
  <circle cx="460" cy="1000" r="1" fill="#ffffff" opacity="0.5"/>
  <circle cx="520" cy="1040" r="1" fill="#ffffff" opacity="0.6"/>
  <circle cx="580" cy="1020" r="1" fill="#ffffff" opacity="0.5"/>
  <circle cx="640" cy="980" r="1" fill="#ffffff" opacity="0.6"/>
  <circle cx="700" cy="1000" r="1" fill="#ffffff" opacity="0.5"/>
  <circle cx="760" cy="1040" r="1" fill="#ffffff" opacity="0.6"/>
  <circle cx="820" cy="1020" r="1" fill="#ffffff" opacity="0.5"/>
  <circle cx="880" cy="980" r="1" fill="#ffffff" opacity="0.6"/>
  <circle cx="940" cy="1000" r="1" fill="#ffffff" opacity="0.5"/>
  <circle cx="1000" cy="1040" r="1" fill="#ffffff" opacity="0.6"/>
  <circle cx="1060" cy="1020" r="1" fill="#ffffff" opacity="0.5"/>
  <circle cx="1120" cy="1060" r="1" fill="#ffffff" opacity="0.6"/>
  <circle cx="1180" cy="1040" r="1" fill="#ffffff" opacity="0.5"/>
  <circle cx="1240" cy="1000" r="1" fill="#ffffff" opacity="0.6"/>
  <circle cx="1300" cy="1020" r="1" fill="#ffffff" opacity="0.5"/>
  <circle cx="1360" cy="1060" r="1" fill="#ffffff" opacity="0.6"/>
  <circle cx="1420" cy="1040" r="1" fill="#ffffff" opacity="0.5"/>
  <circle cx="1480" cy="1000" r="1" fill="#ffffff" opacity="0.6"/>
  <circle cx="1540" cy="1020" r="1" fill="#ffffff" opacity="0.5"/>
  <circle cx="1600" cy="1060" r="1" fill="#ffffff" opacity="0.6"/>
  <circle cx="1660" cy="1040" r="1" fill="#ffffff" opacity="0.5"/>
  <circle cx="1720" cy="1000" r="1" fill="#ffffff" opacity="0.6"/>
  <circle cx="1780" cy="1020" r="1" fill="#ffffff" opacity="0.5"/>
  <circle cx="1840" cy="1060" r="1" fill="#ffffff" opacity="0.6"/>
  <circle cx="1900" cy="1040" r="1" fill="#ffffff" opacity="0.5"/>
  
  <!-- Tiny distant stars -->
  <circle cx="35" cy="25" r="0.5" fill="#ffffff" opacity="0.3"/>
  <circle cx="95" cy="45" r="0.5" fill="#ffffff" opacity="0.4"/>
  <circle cx="155" cy="35" r="0.5" fill="#ffffff" opacity="0.3"/>
  <circle cx="215" cy="55" r="0.5" fill="#ffffff" opacity="0.4"/>
  <circle cx="275" cy="45" r="0.5" fill="#ffffff" opacity="0.3"/>
  <circle cx="335" cy="65" r="0.5" fill="#ffffff" opacity="0.4"/>
  <circle cx="395" cy="55" r="0.5" fill="#ffffff" opacity="0.3"/>
  <circle cx="455" cy="35" r="0.5" fill="#ffffff" opacity="0.4"/>
  <circle cx="515" cy="45" r="0.5" fill="#ffffff" opacity="0.3"/>
  <circle cx="575" cy="65" r="0.5" fill="#ffffff" opacity="0.4"/>
  <circle cx="635" cy="55" r="0.5" fill="#ffffff" opacity="0.3"/>
  <circle cx="695" cy="35" r="0.5" fill="#ffffff" opacity="0.4"/>
  <circle cx="755" cy="45" r="0.5" fill="#ffffff" opacity="0.3"/>
  <circle cx="815" cy="65" r="0.5" fill="#ffffff" opacity="0.4"/>
  <circle cx="875" cy="55" r="0.5" fill="#ffffff" opacity="0.3"/>
  <circle cx="935" cy="35" r="0.5" fill="#ffffff" opacity="0.4"/>
  <circle cx="995" cy="45" r="0.5" fill="#ffffff" opacity="0.3"/>
  <circle cx="1055" cy="65" r="0.5" fill="#ffffff" opacity="0.4"/>
  <circle cx="1115" cy="55" r="0.5" fill="#ffffff" opacity="0.3"/>
  <circle cx="1175" cy="35" r="0.5" fill="#ffffff" opacity="0.4"/>
  <circle cx="1235" cy="45" r="0.5" fill="#ffffff" opacity="0.3"/>
  <circle cx="1295" cy="65" r="0.5" fill="#ffffff" opacity="0.4"/>
  <circle cx="1355" cy="55" r="0.5" fill="#ffffff" opacity="0.3"/>
  <circle cx="1415" cy="35" r="0.5" fill="#ffffff" opacity="0.4"/>
  <circle cx="1475" cy="45" r="0.5" fill="#ffffff" opacity="0.3"/>
  <circle cx="1535" cy="65" r="0.5" fill="#ffffff" opacity="0.4"/>
  <circle cx="1595" cy="55" r="0.5" fill="#ffffff" opacity="0.3"/>
  <circle cx="1655" cy="35" r="0.5" fill="#ffffff" opacity="0.4"/>
  <circle cx="1715" cy="45" r="0.5" fill="#ffffff" opacity="0.3"/>
  <circle cx="1775" cy="65" r="0.5" fill="#ffffff" opacity="0.4"/>
  <circle cx="1835" cy="55" r="0.5" fill="#ffffff" opacity="0.3"/>
  <circle cx="1895" cy="35" r="0.5" fill="#ffffff" opacity="0.4"/>
</svg>